<svg xmlns="http://www.w3.org/2000/svg" viewBox="0 0 32 32" shape-rendering="crispEdges">
  <!-- Tarnished plate -->
  <rect x="8" y="10" width="16" height="18" fill="#5a4a3a"/>
  <rect x="6" y="14" width="2" height="14" fill="#5a4a3a"/>
  <rect x="24" y="14" width="2" height="14" fill="#5a4a3a"/>
  <rect x="9" y="11" width="14" height="2" fill="#8a7a5a"/>
  <rect x="9" y="20" width="14" height="1" fill="#3a2a1a"/>
  <!-- Helm with broken visor -->
  <rect x="9" y="3" width="14" height="9" fill="#3a2a1a"/>
  <rect x="11" y="2" width="10" height="2" fill="#3a2a1a"/>
  <rect x="11" y="6" width="10" height="3" fill="#0a0a0a"/>
  <!-- Glow eyes within helm -->
  <rect x="13" y="7" width="2" height="1" fill="#a8e8c0"/>
  <rect x="17" y="7" width="2" height="1" fill="#a8e8c0"/>
  <!-- Greatsword (rusted) -->
  <rect x="2" y="4" width="2" height="22" fill="#7a6a4a"/>
  <rect x="1" y="4" width="4" height="3" fill="#3a2a1a"/>
  <rect x="2" y="3" width="2" height="2" fill="#a89a6a"/>
  <!-- Belt with skull crest -->
  <rect x="13" y="19" width="6" height="3" fill="#9a8a6a"/>
  <rect x="14" y="20" width="1" height="1" fill="#1a1a1a"/>
  <rect x="17" y="20" width="1" height="1" fill="#1a1a1a"/>
</svg>
