<svg xmlns="http://www.w3.org/2000/svg" viewBox="0 0 64 64" shape-rendering="crispEdges">
  <!-- Eldritch aura -->
  <rect x="0" y="14" width="64" height="42" fill="#3a0830" opacity="0.4"/>
  <rect x="6" y="6" width="52" height="54" fill="#5a1040" opacity="0.3"/>
  <!-- Twisted central mass -->
  <rect x="14" y="10" width="36" height="44" fill="#502030"/>
  <rect x="10" y="20" width="44" height="34" fill="#502030"/>
  <rect x="16" y="6" width="32" height="6" fill="#702030"/>
  <!-- Veins / pulse lines -->
  <rect x="14" y="14" width="36" height="2" fill="#902040"/>
  <rect x="12" y="22" width="40" height="2" fill="#902040"/>
  <rect x="14" y="32" width="36" height="2" fill="#902040"/>
  <rect x="14" y="42" width="36" height="2" fill="#902040"/>
  <rect x="14" y="50" width="36" height="2" fill="#902040"/>
  <!-- Many eyes (column) -->
  <rect x="20" y="18" width="5" height="5" fill="#a8e860"/>
  <rect x="29" y="14" width="6" height="6" fill="#fff8a0"/>
  <rect x="39" y="18" width="5" height="5" fill="#a8e860"/>
  <rect x="22" y="19" width="2" height="2" fill="#1a1015"/>
  <rect x="31" y="16" width="3" height="3" fill="#1a1015"/>
  <rect x="41" y="19" width="2" height="2" fill="#1a1015"/>
  <!-- Lower eye row -->
  <rect x="17" y="34" width="4" height="4" fill="#a8e860"/>
  <rect x="26" y="36" width="4" height="4" fill="#a8e860"/>
  <rect x="34" y="36" width="4" height="4" fill="#a8e860"/>
  <rect x="43" y="34" width="4" height="4" fill="#a8e860"/>
  <rect x="18" y="35" width="2" height="2" fill="#1a1015"/>
  <rect x="27" y="37" width="2" height="2" fill="#1a1015"/>
  <rect x="35" y="37" width="2" height="2" fill="#1a1015"/>
  <rect x="44" y="35" width="2" height="2" fill="#1a1015"/>
  <!-- Massive central mouth -->
  <rect x="18" y="44" width="28" height="8" fill="#1a1015"/>
  <rect x="20" y="46" width="2" height="6" fill="#e8e0d0"/>
  <rect x="24" y="46" width="2" height="6" fill="#e8e0d0"/>
  <rect x="28" y="46" width="2" height="6" fill="#e8e0d0"/>
  <rect x="32" y="46" width="2" height="6" fill="#e8e0d0"/>
  <rect x="36" y="46" width="2" height="6" fill="#e8e0d0"/>
  <rect x="40" y="46" width="2" height="6" fill="#e8e0d0"/>
  <rect x="42" y="46" width="2" height="6" fill="#e8e0d0"/>
  <!-- Tongue -->
  <rect x="28" y="48" width="8" height="6" fill="#902040"/>
  <rect x="30" y="50" width="4" height="4" fill="#a8304a"/>
  <!-- Tentacles around -->
  <rect x="2" y="28" width="10" height="4" fill="#502030"/>
  <rect x="0" y="32" width="6" height="4" fill="#502030"/>
  <rect x="4" y="36" width="4" height="6" fill="#502030"/>
  <rect x="52" y="28" width="10" height="4" fill="#502030"/>
  <rect x="58" y="32" width="6" height="4" fill="#502030"/>
  <rect x="56" y="36" width="4" height="6" fill="#502030"/>
  <!-- Crystal shards embedded (referencing Plague's connection) -->
  <rect x="22" y="26" width="2" height="3" fill="#7ce0ec"/>
  <rect x="30" y="28" width="2" height="3" fill="#7ce0ec"/>
  <rect x="38" y="26" width="2" height="3" fill="#7ce0ec"/>
</svg>
