<svg xmlns="http://www.w3.org/2000/svg" viewBox="0 0 48 48" shape-rendering="crispEdges">
  <!-- Shadow -->
  <rect x="8" y="44" width="32" height="3" fill="#1a1015" opacity="0.5"/>
  <!-- Crowned skull -->
  <rect x="14" y="2" width="20" height="4" fill="#a06028"/>
  <rect x="16" y="0" width="2" height="3" fill="#a06028"/>
  <rect x="22" y="0" width="2" height="3" fill="#a06028"/>
  <rect x="26" y="0" width="2" height="3" fill="#a06028"/>
  <rect x="30" y="0" width="2" height="3" fill="#a06028"/>
  <rect x="14" y="6" width="20" height="12" fill="#e8e0d0"/>
  <rect x="15" y="7" width="18" height="2" fill="#ffffff"/>
  <!-- Eye sockets -->
  <rect x="16" y="10" width="5" height="5" fill="#1a1015"/>
  <rect x="27" y="10" width="5" height="5" fill="#1a1015"/>
  <rect x="17" y="11" width="3" height="3" fill="#a8e860"/>
  <rect x="28" y="11" width="3" height="3" fill="#a8e860"/>
  <!-- Teeth -->
  <rect x="16" y="15" width="16" height="3" fill="#1a1015"/>
  <rect x="18" y="15" width="2" height="3" fill="#e8e0d0"/>
  <rect x="22" y="15" width="2" height="3" fill="#e8e0d0"/>
  <rect x="26" y="15" width="2" height="3" fill="#e8e0d0"/>
  <rect x="30" y="15" width="1" height="3" fill="#e8e0d0"/>
  <!-- Pauldrons -->
  <rect x="6" y="18" width="8" height="6" fill="#403040"/>
  <rect x="34" y="18" width="8" height="6" fill="#403040"/>
  <rect x="7" y="19" width="6" height="2" fill="#605060"/>
  <rect x="35" y="19" width="6" height="2" fill="#605060"/>
  <!-- Breastplate -->
  <rect x="14" y="18" width="20" height="14" fill="#5a4040"/>
  <rect x="15" y="19" width="18" height="2" fill="#7a5050"/>
  <rect x="20" y="22" width="8" height="8" fill="#3a2030"/>
  <!-- Royal crest -->
  <rect x="22" y="24" width="4" height="4" fill="#f5d76e"/>
  <!-- Belt -->
  <rect x="14" y="32" width="20" height="2" fill="#3a2010"/>
  <!-- Two-handed greatsword -->
  <rect x="2" y="20" width="3" height="20" fill="#9a9a98"/>
  <rect x="0" y="18" width="7" height="3" fill="#5a3210"/>
  <rect x="3" y="14" width="1" height="6" fill="#a0a0b0"/>
  <!-- Skirt of armor -->
  <rect x="14" y="34" width="20" height="6" fill="#5a4040"/>
  <!-- Greaves -->
  <rect x="16" y="40" width="6" height="6" fill="#403040"/>
  <rect x="26" y="40" width="6" height="6" fill="#403040"/>
  <!-- Skeletal feet -->
  <rect x="14" y="46" width="8" height="2" fill="#e8e0d0"/>
  <rect x="26" y="46" width="8" height="2" fill="#e8e0d0"/>
</svg>
