<svg xmlns="http://www.w3.org/2000/svg" viewBox="0 0 32 32" shape-rendering="crispEdges">
  <!-- Shadow -->
  <rect x="6" y="29" width="20" height="2" fill="#1a1015" opacity="0.5"/>
  <!-- Helmet -->
  <rect x="9" y="2" width="14" height="9" fill="#5a6075"/>
  <rect x="10" y="3" width="12" height="2" fill="#7a8095"/>
  <rect x="11" y="11" width="10" height="2" fill="#5a6075"/>
  <!-- Helmet visor (slits) -->
  <rect x="11" y="6" width="10" height="3" fill="#1a1015"/>
  <rect x="13" y="7" width="2" height="1" fill="#a8e860"/>
  <rect x="17" y="7" width="2" height="1" fill="#a8e860"/>
  <!-- Crest -->
  <rect x="13" y="0" width="6" height="2" fill="#a04030"/>
  <!-- Pauldrons -->
  <rect x="5" y="11" width="6" height="6" fill="#7a8095"/>
  <rect x="21" y="11" width="6" height="6" fill="#7a8095"/>
  <rect x="6" y="12" width="4" height="2" fill="#9aa0b5"/>
  <rect x="22" y="12" width="4" height="2" fill="#9aa0b5"/>
  <!-- Breastplate -->
  <rect x="9" y="13" width="14" height="11" fill="#6a7080"/>
  <rect x="10" y="14" width="12" height="2" fill="#8a9095"/>
  <rect x="14" y="16" width="4" height="6" fill="#3a3a45"/>
  <!-- Belt -->
  <rect x="9" y="22" width="14" height="2" fill="#3a2010"/>
  <!-- Shield -->
  <rect x="2" y="14" width="6" height="10" fill="#7a4030"/>
  <rect x="3" y="15" width="4" height="2" fill="#a06040"/>
  <rect x="4" y="18" width="2" height="3" fill="#f5d76e"/>
  <!-- Sword -->
  <rect x="26" y="13" width="2" height="11" fill="#a0a0b0"/>
  <rect x="25" y="12" width="4" height="2" fill="#5a3210"/>
  <!-- Greaves -->
  <rect x="10" y="24" width="4" height="5" fill="#5a6075"/>
  <rect x="18" y="24" width="4" height="5" fill="#5a6075"/>
</svg>
